<?xml version="1.0" standalone="no"?>
<!DOCTYPE svg PUBLIC "-//W3C//DTD SVG 20010904//EN"
 "http://www.w3.org/TR/2001/REC-SVG-20010904/DTD/svg10.dtd">
<svg version="1.0" xmlns="http://www.w3.org/2000/svg"
 width="496.000000pt" height="551.000000pt" viewBox="0 0 496.000000 551.000000"
 preserveAspectRatio="xMidYMid meet">

<g transform="translate(0.000000,551.000000) scale(0.100000,-0.100000)"
fill="#000000" stroke="none">
<path d="M2384 5489 c-45 -11 -20 4 -1273 -719 -508 -293 -909 -531 -931 -551
-20 -20 -50 -63 -66 -95 l-29 -59 0 -1265 0 -1265 33 -68 c26 -51 46 -77 85
-106 79 -58 2105 -1226 2160 -1245 61 -20 133 -20 194 0 57 20 2111 1203 2170
1251 27 21 54 57 75 101 l33 67 0 1265 0 1265 -29 57 c-15 31 -45 72 -65 92
-33 32 -2061 1215 -2158 1258 -50 22 -144 30 -199 17z m675 -1931 c117 -205
209 -374 205 -376 -5 -2 -171 -97 -369 -211 l-360 -208 -5 416 -5 416 -128 5
-129 5 284 162 c156 89 286 163 289 163 3 0 101 -167 218 -372z m-569 -418 l0
-420 -420 0 -420 0 0 420 0 420 420 0 420 0 0 -420z m-1430 -740 c18 -18 20
-33 20 -139 0 -91 -3 -121 -14 -130 -13 -11 -13 -18 0 -53 19 -55 18 -58 -14
-58 -25 0 -31 6 -43 43 l-14 42 -3 -42 c-3 -40 -5 -43 -33 -43 l-29 0 0 200 0
200 55 0 c42 0 60 -5 75 -20z m177 -2 c22 -21 23 -27 23 -175 0 -150 -1 -155
-25 -178 -13 -14 -36 -25 -50 -25 -14 0 -37 11 -50 25 -24 23 -25 28 -25 175
0 147 1 152 25 175 30 31 71 32 102 3z m103 -147 l0 -170 38 -3 c32 -3 37 -7
40 -30 l3 -28 -65 0 -66 0 0 200 0 200 25 0 25 0 0 -169z m160 -1 l0 -170 35
0 c32 0 35 -2 35 -30 l0 -30 -65 0 -65 0 0 200 0 200 30 0 30 0 0 -170z m340
140 c0 -28 -2 -30 -41 -30 l-40 0 3 -37 c3 -36 5 -38 41 -41 32 -3 37 -7 37
-28 0 -21 -4 -24 -40 -24 l-40 0 0 -105 0 -105 -25 0 -25 0 0 200 0 200 65 0
65 0 0 -30z m151 11 c23 -18 24 -26 27 -156 4 -155 1 -176 -30 -205 -28 -26
-58 -25 -92 1 l-26 20 0 160 c0 146 2 161 20 179 25 25 71 26 101 1z m179 -1
c18 -18 20 -33 20 -139 0 -91 -3 -121 -14 -130 -13 -11 -13 -18 0 -53 19 -54
18 -58 -11 -58 -21 0 -30 9 -45 43 l-19 42 0 -42 c-1 -41 -2 -43 -31 -43 l-30
0 0 200 0 200 55 0 c42 0 60 -5 75 -20z m290 -10 c0 -28 -3 -30 -35 -30 -33 0
-35 -2 -35 -35 0 -33 2 -35 35 -35 32 0 35 -2 35 -30 0 -28 -3 -30 -35 -30
l-35 0 0 -75 0 -75 35 0 c32 0 35 -2 35 -30 l0 -30 -65 0 -65 0 0 200 0 200
65 0 65 0 0 -30z m136 -102 l19 -133 3 133 3 132 30 0 30 0 -5 -67 c-2 -38 -5
-128 -5 -200 l-1 -133 -43 0 -44 0 -12 98 c-22 171 -29 179 -30 35 l-1 -133
-25 0 -25 0 0 200 0 200 44 0 43 0 19 -132z m229 107 c14 -13 25 -36 25 -50 0
-21 -5 -25 -30 -25 -23 0 -30 4 -30 20 0 11 -7 20 -15 20 -11 0 -15 -11 -16
-37 0 -21 -3 -73 -5 -117 -3 -43 -3 -89 0 -102 8 -32 36 -31 36 1 0 21 5 25
30 25 26 0 30 -3 30 -29 0 -38 -27 -69 -67 -77 -26 -5 -37 -1 -57 19 -26 26
-26 28 -26 181 l0 155 26 20 c35 28 69 26 99 -4z m176 6 c23 -18 24 -26 27
-156 4 -155 1 -176 -30 -205 -30 -28 -69 -25 -99 6 -23 25 -24 30 -24 181 0
151 1 155 24 174 30 24 72 24 102 0z m109 -152 l0 -170 23 3 c22 3 22 5 25
171 l2 167 31 0 30 0 -3 -176 -3 -176 -28 -24 c-30 -26 -72 -31 -98 -11 -34
26 -39 55 -39 221 l0 166 30 0 30 0 0 -171z m225 139 c3 -18 12 -73 19 -123
l14 -90 1 123 1 122 30 0 30 0 0 -201 0 -200 -47 3 -48 3 -16 110 -17 110 -1
-112 -1 -113 -30 0 -30 0 0 200 0 200 45 0 c42 0 44 -2 50 -32z m315 2 c0 -28
-3 -30 -35 -30 l-35 0 0 -170 0 -170 -30 0 -30 0 0 170 0 170 -35 0 c-32 0
-35 2 -35 30 l0 30 100 0 100 0 0 -30z m150 0 c0 -28 -3 -30 -35 -30 -33 0
-35 -2 -35 -35 0 -33 2 -35 35 -35 32 0 35 -2 35 -30 0 -28 -3 -30 -35 -30
l-35 0 0 -75 0 -75 35 0 c32 0 35 -2 35 -30 l0 -30 -65 0 -65 0 0 200 0 200
65 0 65 0 0 -30z m159 4 c18 -23 21 -41 21 -133 0 -78 -4 -112 -15 -128 -13
-19 -13 -26 0 -63 19 -54 20 -50 -14 -50 -25 0 -31 6 -42 38 l-13 37 -6 -35
c-4 -29 -10 -36 -32 -38 l-28 -3 0 200 0 201 54 0 c47 0 57 -4 75 -26z m-2964
-704 c0 -16 -6 -26 -17 -28 -14 -3 -18 3 -18 28 0 25 4 31 18 28 11 -2 17 -12
17 -28z m88 11 c-2 -6 2 -11 7 -11 6 0 10 -7 10 -15 0 -8 -9 -15 -20 -15 -16
0 -20 7 -20 31 0 20 4 29 13 26 6 -2 11 -10 10 -16z m105 -14 c2 -19 -1 -27
-12 -27 -11 0 -16 10 -16 31 0 38 24 35 28 -4z m162 23 c-10 -6 -11 -10 -2
-10 6 0 12 -9 12 -20 0 -12 -7 -20 -17 -20 -16 0 -16 2 -3 11 11 8 12 12 3 16
-19 7 -15 33 5 33 14 0 15 -2 2 -10z m95 -20 c0 -17 -5 -30 -12 -30 -8 0 -13
13 -13 30 0 18 5 30 13 30 8 0 13 -12 12 -30z m165 2 c0 -19 -5 -29 -15 -29
-10 0 -15 10 -15 29 0 18 5 28 15 28 10 0 15 -10 15 -28z m94 6 c9 -34 8 -38
-12 -38 -15 0 -18 6 -14 30 5 36 17 39 26 8z m96 -12 c0 -21 -3 -27 -9 -17 -7
11 -9 11 -14 0 -3 -8 -6 0 -6 17 -1 21 4 31 14 31 10 0 15 -10 15 -31z m95 4
c0 -16 -6 -26 -17 -28 -14 -3 -18 3 -18 28 0 25 4 31 18 28 11 -2 17 -12 17
-28z m109 15 c8 -21 -3 -45 -20 -45 -8 0 -17 7 -20 15 -8 21 2 45 20 45 7 0
16 -7 20 -15z m106 -1 c0 -7 3 -19 6 -28 5 -12 0 -16 -20 -16 -22 0 -26 5 -26
28 0 21 5 28 20 28 11 0 20 -6 20 -12z m160 6 c-13 -9 -13 -10 0 -10 13 0 13
-1 0 -10 -13 -9 -13 -11 0 -20 13 -8 12 -10 -2 -10 -13 0 -18 8 -18 30 0 22 5
30 18 30 14 0 15 -2 2 -10z m93 1 c3 8 6 0 6 -17 1 -21 -4 -31 -14 -31 -10 0
-15 10 -15 31 0 21 3 27 9 17 7 -11 9 -11 14 0z m87 -6 c-10 -12 -10 -18 0
-30 9 -11 9 -15 1 -15 -15 0 -25 26 -17 45 3 8 11 15 17 15 8 0 8 -4 -1 -15z
m118 -13 c2 -13 -3 -25 -13 -28 -23 -9 -38 10 -30 36 9 27 39 22 43 -8z m82 3
l8 30 1 -32 c1 -23 -4 -33 -14 -33 -11 0 -15 10 -14 33 l2 32 5 -30 5 -30 7
30z m90 13 c0 -9 4 -8 10 2 7 11 10 7 10 -17 0 -18 -4 -33 -10 -33 -5 0 -10 6
-10 13 0 8 -4 7 -10 -3 -7 -11 -10 -7 -10 18 0 17 5 32 10 32 6 0 10 -6 10
-12z m102 -18 c-5 -36 -7 -35 -16 3 -4 19 -3 27 7 27 9 0 12 -9 9 -30z m93 22
c-16 -11 -17 -34 -3 -43 10 -7 9 -9 -4 -9 -13 0 -18 8 -18 30 0 22 5 30 18 30
9 0 13 -4 7 -8z m90 -25 c1 -19 -4 -27 -17 -27 -13 0 -18 8 -18 31 0 24 4 30
18 27 11 -2 17 -13 17 -31z m165 22 c-11 -8 -12 -12 -2 -16 6 -2 12 -11 12
-19 0 -16 -26 -19 -35 -4 -10 17 5 50 23 50 15 0 15 -2 2 -11z m85 -19 c0 -16
-3 -30 -7 -30 -5 0 -8 14 -8 30 0 17 4 30 8 30 4 0 8 -13 7 -30z m105 0 c0
-19 -6 -26 -20 -27 -16 -1 -20 4 -20 27 0 23 4 28 20 27 14 -1 20 -8 20 -27z
m86 18 c-1 -7 -5 -18 -9 -25 -4 -6 -1 -14 5 -16 8 -3 6 -6 -4 -6 -13 -1 -18 7
-18 29 0 19 5 30 14 30 8 0 13 -6 12 -12z m89 -21 c1 -19 -4 -27 -17 -27 -18
0 -26 39 -11 54 13 13 28 -1 28 -27z m97 -1 c4 -19 1 -24 -14 -23 -19 1 -22
14 -12 41 8 21 20 12 26 -18z m90 4 c-2 -16 -8 -30 -12 -30 -4 0 -10 14 -12
30 -4 23 -1 30 12 30 13 0 16 -7 12 -30z m103 -1 c0 -28 -29 -38 -39 -13 -7
19 11 47 28 41 6 -2 11 -14 11 -28z m95 3 c0 -19 -5 -29 -15 -29 -10 0 -15 10
-15 29 0 18 5 28 15 28 10 0 15 -10 15 -28z"/>
<path d="M2710 3688 c-39 -42 -17 -110 39 -123 35 -8 66 10 81 45 30 73 -66
135 -120 78z"/>
<path d="M2925 3315 c-14 -13 -25 -36 -25 -50 0 -14 11 -37 25 -50 13 -14 36
-25 50 -25 14 0 37 11 50 25 14 13 25 36 25 50 0 14 -11 37 -25 50 -13 14 -36
25 -50 25 -14 0 -37 -11 -50 -25z"/>
<path d="M2577 3122 c-23 -25 -22 -85 1 -105 25 -23 85 -22 105 1 21 23 22 71
1 100 -20 28 -83 31 -107 4z"/>
<path d="M2205 3435 c-28 -27 -30 -42 -14 -78 11 -25 47 -47 75 -47 26 0 64
47 64 79 0 65 -78 94 -125 46z"/>
<path d="M1995 3225 c-65 -64 17 -162 92 -110 45 32 37 101 -14 124 -36 16
-51 14 -78 -14z"/>
<path d="M1782 3014 c-33 -23 -31 -86 4 -113 15 -12 34 -21 44 -21 33 0 70 39
70 74 0 67 -62 99 -118 60z"/>
<path d="M990 2260 c0 -91 2 -101 18 -98 15 3 17 16 17 98 0 82 -2 95 -17 98
-16 3 -18 -7 -18 -98z"/>
<path d="M1170 2221 c0 -118 2 -141 15 -141 22 0 26 32 23 160 -3 100 -5 115
-20 118 -16 3 -18 -9 -18 -137z"/>
<path d="M1922 2223 c3 -122 5 -138 21 -141 15 -3 17 9 17 137 0 135 -1 141
-20 141 -20 0 -20 -5 -18 -137z"/>
<path d="M2100 2259 c0 -90 2 -100 18 -97 14 3 17 17 20 101 3 92 2 97 -18 97
-19 0 -20 -6 -20 -101z"/>
<path d="M2932 2223 c3 -115 6 -138 18 -138 12 0 15 23 18 138 2 132 2 137
-18 137 -20 0 -20 -5 -18 -137z"/>
<path d="M3890 2260 c0 -82 3 -100 15 -100 12 0 15 18 15 100 0 82 -3 100 -15
100 -12 0 -15 -18 -15 -100z"/>
<path d="M970 1684 c0 -8 5 -12 10 -9 6 4 8 11 5 16 -9 14 -15 11 -15 -7z"/>
<path d="M1171 1684 c0 -11 3 -14 6 -6 3 7 2 16 -1 19 -3 4 -6 -2 -5 -13z"/>
<path d="M1974 1699 c-3 -6 -1 -16 5 -22 8 -8 11 -5 11 11 0 24 -5 28 -16 11z"/>
<path d="M2540 1690 c0 -19 3 -21 12 -12 9 9 9 15 0 24 -9 9 -12 7 -12 -12z"/>
<path d="M3820 1690 c0 -19 3 -21 12 -12 9 9 9 15 0 24 -9 9 -12 7 -12 -12z"/>
</g>
</svg>
